<?xml version="1.0" standalone="no"?>
<!DOCTYPE svg PUBLIC "-//W3C//DTD SVG 20010904//EN"
 "http://www.w3.org/TR/2001/REC-SVG-20010904/DTD/svg10.dtd">
<svg version="1.0" xmlns="http://www.w3.org/2000/svg"
 width="512.000000pt" height="512.000000pt" viewBox="0 0 512.000000 512.000000"
 preserveAspectRatio="xMidYMid meet">

<g transform="translate(0.000000,512.000000) scale(0.100000,-0.100000)"
fill="#ffffff" stroke="none">
<path d="M1495 4928 c-30 -17 -35 -28 -35 -83 0 -104 49 -225 128 -315 l46
-53 -30 -21 c-98 -71 -179 -179 -222 -296 l-27 -75 -3 -335 -3 -335 -40 -23
c-85 -49 -124 -141 -117 -274 4 -65 11 -96 33 -141 58 -117 181 -197 303 -197
l57 0 33 -85 c67 -169 189 -344 338 -483 l93 -87 -16 -175 c-8 -96 -17 -177
-19 -179 -2 -2 -218 -55 -481 -117 -413 -99 -490 -120 -562 -155 -152 -75
-265 -217 -305 -384 -17 -69 -99 -831 -94 -871 5 -40 50 -71 85 -58 16 5 33
21 39 34 7 14 30 205 53 425 23 220 49 426 58 458 20 72 76 161 131 208 80 68
128 86 428 158 159 38 291 68 293 65 2 -2 -33 -180 -78 -396 -44 -216 -81
-401 -81 -410 0 -28 37 -58 70 -58 16 0 47 6 67 14 77 30 356 126 364 126 4 0
9 -133 11 -295 3 -318 3 -316 58 -330 18 -4 34 0 53 15 l27 21 0 560 c0 307 4
559 8 559 5 0 21 -14 38 -31 41 -43 132 -94 210 -119 174 -53 403 -1 519 120
16 16 32 30 37 30 4 0 8 -252 8 -559 l0 -560 27 -21 c19 -15 35 -19 53 -15 55
14 55 12 58 330 2 162 7 295 12 295 4 0 97 -31 207 -70 109 -38 210 -70 226
-70 30 0 67 31 67 57 0 10 -37 195 -81 411 -45 216 -80 394 -78 396 2 3 134
-26 293 -65 300 -72 348 -89 428 -158 55 -47 111 -136 131 -208 9 -32 35 -238
58 -458 23 -220 46 -411 53 -425 6 -13 23 -29 39 -34 35 -13 80 18 85 58 5 40
-77 802 -94 871 -39 165 -155 310 -305 384 -73 36 -148 57 -562 155 -263 63
-480 116 -482 118 -1 1 -10 82 -18 178 l-16 175 93 87 c149 140 267 309 337
483 l34 85 57 0 c176 0 325 147 336 332 8 135 -32 231 -118 280 l-40 23 0 245
c0 263 -9 366 -41 499 -105 423 -440 703 -923 770 -110 15 -1284 14 -1311 -1z
m1417 -156 c415 -101 656 -371 708 -792 5 -46 10 -191 10 -321 l0 -236 -32 -7
c-31 -7 -37 -3 -121 85 -121 126 -142 174 -168 371 -25 195 -25 195 -54 214
-22 15 -34 14 -167 -10 -339 -60 -696 -62 -1028 -5 -63 11 -129 23 -147 26
-50 9 -78 -27 -87 -108 -32 -297 -53 -352 -183 -488 -84 -88 -90 -92 -120 -85
l-33 7 0 296 c0 321 5 362 56 463 38 74 126 158 206 197 70 33 88 52 88 95 0
19 -13 35 -52 64 -72 53 -125 114 -154 176 -45 96 -107 88 584 83 577 -3 611
-5 694 -25z m-752 -858 c242 -34 618 -29 888 13 56 8 104 14 107 12 2 -3 9
-45 15 -94 27 -211 62 -284 209 -439 l103 -110 -7 -90 c-26 -340 -143 -618
-354 -839 -151 -158 -358 -287 -493 -307 -181 -27 -387 70 -604 285 -230 228
-353 507 -380 862 l-7 90 97 100 c103 108 158 188 182 268 13 44 43 226 44
264 0 11 10 12 48 7 26 -4 94 -14 152 -22z m-682 -630 c18 -5 22 -14 22 -43 0
-34 21 -201 36 -285 l7 -39 -42 6 c-97 13 -171 107 -171 219 0 72 20 115 63
133 36 16 52 17 85 9z m2247 -8 c44 -19 65 -61 65 -134 0 -112 -74 -206 -171
-219 l-42 -6 7 39 c15 85 36 251 36 286 0 26 5 38 18 41 32 9 53 7 87 -7z
m-1325 -1340 c151 -41 288 -25 443 51 74 37 97 45 97 33 1 -8 7 -85 15 -170
15 -173 10 -230 -32 -318 -35 -74 -109 -147 -190 -185 -63 -30 -76 -32 -173
-32 -97 0 -110 2 -173 32 -81 38 -155 111 -190 185 -42 88 -47 145 -32 318 8
85 14 163 15 172 0 14 15 9 83 -27 45 -24 107 -50 137 -59z m-390 -644 l0
-328 -166 -58 c-91 -32 -168 -55 -171 -52 -4 3 27 167 68 363 l74 358 85 22
c47 11 91 22 98 22 9 1 12 -71 12 -327z m1215 305 l80 -22 74 -358 c41 -196
72 -360 68 -363 -3 -3 -80 20 -171 53 l-166 58 0 328 c0 305 1 327 18 326 9 0
53 -10 97 -22z"/>
<path d="M2052 3532 c-63 -23 -112 -66 -112 -99 0 -26 41 -73 64 -73 8 0 38
11 68 25 70 33 125 32 200 -2 56 -25 62 -26 87 -12 14 8 30 27 35 42 33 94
-192 172 -342 119z"/>
<path d="M2844 3532 c-100 -35 -138 -78 -116 -127 21 -46 54 -52 120 -21 75
33 131 33 200 1 67 -31 77 -31 107 0 47 46 27 89 -64 135 -63 31 -178 37 -247
12z"/>
<path d="M2140 3283 c-28 -11 -59 -46 -65 -74 -7 -32 16 -83 44 -99 26 -13 77
-13 103 1 26 14 48 67 41 101 -9 49 -78 89 -123 71z"/>
<path d="M2920 3283 c-25 -10 -52 -37 -61 -62 -12 -31 6 -86 34 -106 25 -17
80 -20 108 -5 28 16 51 67 44 99 -11 52 -79 92 -125 74z"/>
<path d="M2251 2644 c-43 -54 -18 -93 84 -131 55 -20 94 -27 184 -31 134 -6
223 8 301 46 68 34 85 67 53 110 -27 36 -46 37 -136 7 -107 -35 -247 -36 -353
0 -93 31 -108 31 -133 -1z"/>
</g>
</svg>
