<?xml version="1.0" standalone="no"?>

<svg version="1.0" xmlns="http://www.w3.org/2000/svg"
 width="512.000000pt" height="512.000000pt" viewBox="0 0 512.000000 512.000000"
 preserveAspectRatio="xMidYMid meet">

<g transform="translate(0.000000,512.000000) scale(0.100000,-0.100000)"
fill="#c0b596" stroke="none">
<path d="M1286 5104 c-177 -43 -324 -189 -372 -369 -20 -74 -20 -4276 0 -4350
48 -182 196 -327 377 -370 96 -22 2442 -22 2538 0 180 43 329 189 377 370 20
74 20 4276 0 4350 -48 182 -196 327 -377 370 -93 22 -2452 21 -2543 -1z m2424
-2029 l0 -1535 -1150 0 -1150 0 0 1535 0 1535 1150 0 1150 0 0 -1535z m-926
-2069 c94 -39 156 -137 156 -246 -1 -103 -42 -174 -131 -222 -42 -22 -54 -23
-244 -23 -177 0 -204 2 -235 19 -65 35 -99 68 -125 119 -63 127 -6 279 130
346 36 18 61 20 228 21 137 0 196 -4 221 -14z"/>
</g>
</svg>
